<?xml version="1.0" encoding="UTF-8"?>
<svg id="Camada_1" data-name="Camada 1" xmlns="http://www.w3.org/2000/svg" viewBox="0 0 1920 1080">
  <defs>
    <style>
      .cls-1 {
        fill: #fff;
      }

      .cls-2 {
        fill: #901b3d;
      }
    </style>
  </defs>
  <g>
    <path class="cls-2" d="M811.01,613.9c-4.55,0-7.85-.65-9.88-1.95-2.04-1.3-3.29-3.09-3.78-5.37-.49-2.27-.73-4.71-.73-7.32v-90.97c0-2.76.28-5.2.85-7.32.57-2.11,1.87-3.82,3.9-5.12,2.03-1.3,5.4-1.95,10.12-1.95s8.17.98,10.36,2.93c2.2,1.95,3.29,5.12,3.29,9.51l-2.19,6.58c.81-1.79,2.19-3.74,4.15-5.85,1.95-2.11,4.35-4.23,7.19-6.34,2.84-2.11,6.06-3.82,9.63-5.12,3.57-1.3,7.32-1.95,11.22-1.95,5.37,0,10.28.9,14.75,2.68,4.47,1.79,8.45,4.39,11.95,7.8,3.49,3.41,6.54,7.56,9.15,12.44,2.76-4.23,5.85-8.09,9.27-11.58,3.41-3.49,7.4-6.26,11.95-8.29,4.55-2.03,9.67-3.05,15.36-3.05,9.43,0,17.35,2.36,23.78,7.07,6.42,4.72,11.26,11.42,14.51,20.12,3.25,8.7,4.88,19.07,4.88,31.1v47.31c0,2.77-.24,5.24-.73,7.44-.49,2.2-1.75,3.94-3.78,5.24-2.04,1.3-5.41,1.95-10.12,1.95s-7.85-.69-9.88-2.07c-2.04-1.38-3.29-3.17-3.78-5.37-.49-2.2-.73-4.67-.73-7.44v-47.31c0-6.01-.73-11.22-2.2-15.61-1.46-4.39-3.66-7.76-6.58-10.12-2.93-2.36-6.67-3.54-11.22-3.54s-8.82,1.14-12.32,3.42c-3.5,2.28-6.22,5.61-8.17,10s-2.93,9.76-2.93,16.1v47.56c0,2.77-.41,5.33-1.22,7.68-.82,2.36-2.4,4.15-4.76,5.37-2.36,1.22-5.73,1.67-10.12,1.34-4.23-.16-7.28-.98-9.15-2.44-1.87-1.46-3.01-3.29-3.41-5.49-.41-2.2-.61-4.51-.61-6.95v-47.31c0-6.01-.69-11.22-2.07-15.61-1.38-4.39-3.54-7.76-6.46-10.12-2.93-2.36-6.67-3.54-11.22-3.54-5.04,0-9.31,1.26-12.8,3.78-3.5,2.52-6.14,6.02-7.93,10.49-1.79,4.47-2.68,9.47-2.68,15v47.8c0,2.6-.29,5.04-.85,7.32-.57,2.28-1.87,4.02-3.9,5.24-2.04,1.22-5.41,1.83-10.12,1.83Z"/>
    <path class="cls-2" d="M1095.38,613.65c-4.88,0-8.41-.9-10.61-2.68-2.2-1.79-3.38-4.23-3.54-7.32l1.71-8.05c-1.3,2.12-3.5,4.6-6.58,7.44-3.09,2.85-7.12,5.37-12.07,7.56-4.96,2.2-11.02,3.29-18.17,3.29-7.64,0-14.84-1.59-21.58-4.76-6.75-3.17-12.72-7.56-17.93-13.17-5.21-5.61-9.27-12.03-12.19-19.27-2.93-7.23-4.39-15-4.39-23.29s1.46-15.49,4.39-22.56c2.93-7.07,7.03-13.37,12.32-18.9,5.28-5.53,11.26-9.88,17.93-13.05,6.67-3.17,13.82-4.76,21.46-4.76,6.5,0,12.07.9,16.71,2.68,4.63,1.79,8.57,4.02,11.83,6.71,3.25,2.68,5.93,5.49,8.05,8.41l-1.22-7.07c-.16-3.57.89-6.3,3.17-8.17,2.27-1.87,5.93-2.8,10.97-2.8,4.39,0,7.6.69,9.63,2.07,2.03,1.38,3.29,3.29,3.78,5.73.49,2.44.73,5.12.73,8.05v89.02c0,2.77-.24,5.29-.73,7.56-.49,2.28-1.75,4.07-3.78,5.37-2.04,1.3-5.33,1.95-9.88,1.95ZM1050.5,585.36c5.37,0,10.28-1.38,14.76-4.15,4.47-2.76,8.01-6.54,10.61-11.34,2.6-4.79,3.9-10.12,3.9-15.97,0-6.18-1.34-11.62-4.02-16.34-2.68-4.71-6.3-8.45-10.85-11.22-4.55-2.76-9.51-4.15-14.88-4.15-6.02,0-11.38,1.42-16.1,4.27-4.72,2.85-8.41,6.67-11.1,11.46-2.68,4.8-4.02,10.21-4.02,16.22s1.38,11.14,4.15,15.85c2.76,4.72,6.54,8.46,11.34,11.22,4.79,2.77,10.2,4.15,16.22,4.15Z"/>
    <path class="cls-2" d="M1138.3,496.34l25.12.24,33.66-.98c2.76,0,5.24.29,7.44.85,2.19.57,3.94,1.87,5.24,3.9,1.3,2.04,1.95,5.33,1.95,9.88s-.65,7.6-1.95,9.63c-1.3,2.04-3.01,3.38-5.12,4.02-2.12.65-4.55.98-7.32.98l-32.68-.73-27.07.24c-4.23-.16-7.12-1.3-8.66-3.41-1.55-2.11-2.32-5.69-2.32-10.73s.93-8.41,2.8-10.61c1.87-2.2,4.84-3.29,8.9-3.29ZM1193.18,614.14c-7.97,0-14.8-.82-20.49-2.44-5.69-1.62-10.37-4.15-14.02-7.56s-6.3-7.84-7.93-13.29c-1.63-5.45-2.44-11.91-2.44-19.39v-103.41c0-2.76.24-5.24.73-7.44.49-2.2,1.75-3.9,3.78-5.12,2.03-1.22,5.32-1.83,9.88-1.83s7.84.65,9.88,1.95c2.03,1.3,3.33,3.05,3.9,5.24.57,2.2.85,4.68.85,7.44v102.19c0,3.41.28,6.18.85,8.29.57,2.12,1.46,3.7,2.68,4.76,1.22,1.06,2.84,1.79,4.88,2.2,2.03.41,4.51.61,7.44.61,3.09,0,5.73.24,7.93.73,2.2.49,3.86,1.67,5,3.54,1.14,1.87,1.71,4.92,1.71,9.15,0,4.55-.69,7.85-2.07,9.88-1.38,2.04-3.17,3.29-5.37,3.78-2.19.49-4.6.73-7.19.73Z"/>
    <path class="cls-2" d="M1288.05,615.85c-10.57,0-19.84-1.75-27.8-5.24-7.97-3.49-14.55-8.21-19.75-14.15-5.21-5.93-9.15-12.6-11.83-20-2.68-7.4-4.02-15.08-4.02-23.05,0-11.71,2.68-22.11,8.05-31.22,5.37-9.1,12.8-16.26,22.32-21.46,9.51-5.2,20.44-7.8,32.8-7.8,8.78,0,16.5,1.38,23.17,4.15,6.67,2.77,12.23,6.38,16.71,10.85,4.47,4.47,7.88,9.39,10.24,14.75,2.35,5.37,3.54,10.57,3.54,15.61,0,8.62-2.07,14.88-6.22,18.78-4.15,3.9-9.31,5.85-15.49,5.85h-64.39c.16,5.53,1.91,10.33,5.24,14.39,3.33,4.07,7.56,7.19,12.68,9.39,5.12,2.19,10.37,3.29,15.73,3.29,4.06,0,7.64-.24,10.73-.73,3.09-.49,5.77-1.1,8.05-1.83,2.28-.73,4.31-1.5,6.1-2.32,1.79-.81,3.37-1.54,4.75-2.19,1.38-.65,2.72-1.06,4.02-1.22,1.95-.16,3.82.24,5.61,1.22,1.79.98,3.25,2.68,4.39,5.12.98,1.63,1.67,3.13,2.07,4.51.4,1.38.61,2.72.61,4.02,0,3.25-1.95,6.34-5.85,9.27s-9.39,5.33-16.46,7.2c-7.07,1.87-15.41,2.8-25,2.8ZM1255.37,545.61h50c2.76,0,4.84-.45,6.22-1.34,1.38-.89,2.07-2.8,2.07-5.73,0-3.74-1.14-7.07-3.42-10-2.28-2.93-5.37-5.28-9.27-7.07-3.9-1.79-8.38-2.68-13.41-2.68-6.02,0-11.46,1.22-16.34,3.66-4.88,2.44-8.74,5.69-11.58,9.76-2.85,4.07-4.27,8.54-4.27,13.41Z"/>
    <path class="cls-2" d="M1375.6,614.14c-4.55,0-7.85-.69-9.88-2.07-2.04-1.38-3.29-3.21-3.78-5.49-.49-2.27-.73-4.79-.73-7.56v-90.48c0-2.76.28-5.28.85-7.56.57-2.27,1.87-4.02,3.9-5.24,2.03-1.22,5.32-1.83,9.88-1.83s7.6.57,9.63,1.71c2.03,1.14,3.33,2.6,3.9,4.39.57,1.79.85,3.42.85,4.88l-1.95,4.39c.81-1.3,1.95-2.88,3.42-4.75,1.46-1.87,3.41-3.74,5.85-5.61,2.44-1.87,5.37-3.42,8.78-4.63,3.41-1.22,7.48-1.83,12.19-1.83,1.95,0,4.02.21,6.22.61,2.2.41,4.39.98,6.58,1.71,2.2.73,4.18,1.67,5.98,2.8,1.79,1.14,3.17,2.48,4.15,4.02.98,1.55,1.46,3.29,1.46,5.24,0,5.21-1.3,9.6-3.9,13.17-2.6,3.58-5.69,5.37-9.27,5.37-2.44,0-4.23-.24-5.37-.73-1.14-.49-2.07-1.01-2.8-1.58-.73-.57-1.79-1.1-3.17-1.59-1.38-.49-3.54-.73-6.46-.73-2.44,0-4.92.41-7.44,1.22-2.52.82-4.84,2.04-6.95,3.66-2.12,1.63-3.82,3.66-5.12,6.1-1.3,2.44-1.95,5.29-1.95,8.54v59.26c0,2.77-.24,5.24-.73,7.44-.49,2.2-1.79,3.94-3.9,5.24-2.12,1.3-5.53,1.95-10.24,1.95Z"/>
  </g>
  <g>
    <circle class="cls-2" cx="597.16" cy="540" r="126.9"/>
    <g>
      <path class="cls-1" d="M638.41,596.33c-11.88,12.11-26.57,21.55-41.44,29.49-12.65-6.65-23.88-13.83-34.63-23.1-15.7-13.76-26.58-29.78-27.72-51.27-.37-6.97-.28-13.72.16-20.67l.7-11.3c.4-6.37,1.16-12.5,2.36-18.78,2.85-14.89,8.57-27.47,21.47-36.12,5.64-3.78,11.74-6.39,18.38-8.03,18.31-4.54,40.35-2.83,56.45,7.65,12.78,8.32,18.95,20.64,21.89,35.29,1.22,6.09,2.1,12.02,2.5,18.23l1.25,18.98c.26,3.9.17,7.64.04,11.5-.64,19.43-8.03,34.34-21.4,48.13ZM596.97,612.25c9.19-5.05,17.71-10.48,25.73-16.83,5.78-4.61,10.95-9.62,15.39-15.52,7.25-9.44,10.84-20.05,11.23-31.97.4-12.1-.58-24.59-1.89-36.6-.53-4.87-1.38-9.47-2.58-14.18-2.67-10.41-7.46-18.82-16.7-24.61-5.19-3.25-10.76-5.36-16.81-6.58-9.45-1.9-19.07-1.88-28.51,0-6.27,1.25-12.07,3.41-17.41,6.85-9.68,6.23-14.09,15.28-16.62,26.24-1.09,4.72-1.81,9.33-2.32,14.19-.91,8.73-1.49,17.29-1.73,26.08-.14,5.04,0,9.76.59,14.72,2.4,20.15,15.74,34.04,31.39,45.57,6.46,4.6,13.07,8.75,20.24,12.64Z"/>
      <ellipse class="cls-1" cx="597" cy="554.16" rx="15.27" ry="15.28"/>
    </g>
  </g>
</svg>